<svg width="829" height="157" viewBox="0 0 829 157" fill="none" xmlns="http://www.w3.org/2000/svg">
<rect width="22.1719" height="146.405" transform="matrix(0.825491 -0.564415 0.438217 0.898869 0 19.1178)" fill="#1F299C"/>
<rect width="21.6968" height="149.006" transform="matrix(0.90643 0.422356 -0.315293 0.948994 103.306 0)" fill="#F45929"/>
<rect width="21.1342" height="151.958" transform="matrix(0.999999 0.00133917 -0.000954868 1 167.803 2.68161)" fill="#17215C"/>
<rect width="21.1342" height="151.958" transform="matrix(0.999999 0.00133917 -0.000954868 1 443.302 2.68161)" fill="#F45929"/>
<rect width="21.1342" height="151.958" transform="matrix(0.999999 0.00133917 -0.000954868 1 738.425 2.68161)" fill="#F45929"/>
<rect width="22.343" height="145.443" transform="matrix(0.795698 -0.605693 0.477029 0.878888 741.677 16.2146)" fill="#17215C"/>
<rect width="21.1342" height="151.958" transform="matrix(0.999999 0.00133917 -0.000954868 1 807.866 2.68161)" fill="#F45929"/>
<path d="M0 19.1178L18.3027 6.60363L82.46 138.203L64.1573 150.717L0 19.1178Z" fill="#17215C"/>
<mask id="mask0_45_939" style="mask-type:alpha" maskUnits="userSpaceOnUse" x="271" y="6" width="127" height="140">
<ellipse cx="62.9162" cy="69.1257" rx="62.9162" ry="69.1257" transform="matrix(-0.999843 0.0177218 -0.0126371 -0.99992 398.624 144.051)" fill="#D9D9D9"/>
</mask>
<g mask="url(#mask0_45_939)">
<rect width="125.832" height="102.318" transform="matrix(-0.999843 0.0177218 -0.0126371 -0.99992 397.723 72.7989)" fill="#F45929"/>
</g>
<mask id="mask1_45_939" style="mask-type:alpha" maskUnits="userSpaceOnUse" x="220" y="4" width="127" height="139">
<ellipse cx="62.9189" cy="69.1236" rx="62.9189" ry="69.1236" transform="matrix(0.999696 -0.024663 0.017588 0.999845 219.738 5.78513)" fill="#D9D9D9"/>
</mask>
<g mask="url(#mask1_45_939)">
<rect width="125.838" height="102.315" transform="matrix(0.999696 -0.024663 0.017588 0.999845 220.992 77.0293)" fill="#17215C"/>
</g>
<path d="M596.96 7L601.29 23.36C603.21 30.63 600.41 38.49 594.33 42.91C588.24 47.33 579.91 47.56 573.59 43.49L549.47 27.94C551.91 25.62 554.53 23.43 557.32 21.4C558.93 20.23 560.57 19.14 562.23 18.11L581.81 30.73C582.91 31.44 584.35 31.4 585.41 30.63C586.47 29.86 586.95 28.5 586.62 27.24L581.94 9.54C586.89 8.18 591.92 7.34 596.97 7L596.96 7Z" fill="#17215C"/>
<path d="M587.12 65.08C589.45 72.23 587.09 80.23 581.26 84.99L536.31 121.64C533.61 117.04 531.45 112.26 529.8 107.36L571.66 73.22C572.67 72.4 573.08 71.01 572.67 69.77C572.26 68.51 571.14 67.64 569.82 67.57L528 65.24C529.23 60.12 530.99 55.13 533.26 50.34L570.68 52.43C578.19 52.85 584.79 57.94 587.12 65.09V65.08Z" fill="#17215C"/>
<path d="M623.1 90.51L644.77 146.38C640.45 149.29 635.94 151.7 631.3 153.62L608.95 96C608.47 94.78 607.28 93.96 605.98 93.97C604.67 93.97 603.48 94.79 603.01 96L579.73 156.03C574.9 154.55 570.21 152.59 565.73 150.16L588.86 90.52C591.58 83.51 598.46 78.8 605.98 78.8C613.5 78.8 620.38 83.51 623.1 90.53V90.51Z" fill="#17215C"/>
<path d="M640.29 73.23L675.97 102.33C674.63 107.49 672.75 112.52 670.34 117.32L630.7 84.99C624.87 80.24 622.52 72.24 624.84 65.09C627.16 57.94 633.77 52.85 641.28 52.43L671.24 50.76C673.51 55.59 675.24 60.59 676.43 65.67L642.13 67.59C640.82 67.66 639.68 68.55 639.28 69.79C638.88 71.03 639.28 72.42 640.3 73.25L640.29 73.23Z" fill="#17215C"/>
<path d="M657.83 30.95L638.38 43.48C632.06 47.56 623.72 47.32 617.64 42.9C611.55 38.48 608.76 30.63 610.68 23.35L614.77 7.88C619.76 8.71 624.67 10.04 629.42 11.85L625.35 27.23C625.01 28.51 625.49 29.84 626.56 30.63C627.61 31.39 629.06 31.43 630.16 30.73L645.89 20.59C650.16 23.57 654.17 27.03 657.83 30.95Z" fill="#17215C"/>
</svg>
