<?xml version="1.0" encoding="UTF-8"?>
<svg version="1.1" xmlns="http://www.w3.org/2000/svg" width="383" height="2658">
<path d="M0 0 C126.39 0 252.78 0 383 0 C383 877.14 383 1754.28 383 2658 C256.61 2658 130.22 2658 0 2658 C0 1780.86 0 903.72 0 0 Z " fill="#F35829" transform="translate(0,0)"/>
<path d="M0 0 C3.96 0 7.92 0 12 0 C12.04225279 80.57365508 12.05336142 161.14703897 11.83227539 241.72045898 C11.83009604 242.51621988 11.82791669 243.31198077 11.82567131 244.13185563 C11.77113576 264.00559807 11.71259772 283.87932807 11.65243883 303.7530542 C11.61191852 317.14267359 11.57273628 330.53229636 11.53457451 343.92192268 C11.53194694 344.84378786 11.52931937 345.76565304 11.52661218 346.71545352 C11.51322537 351.4146119 11.49985999 356.11377034 11.48650425 360.8129288 C11.39292134 393.73165504 11.29739438 426.65037533 11.20043945 459.5690918 C11.19466274 461.53069582 11.18888605 463.49229984 11.1831094 465.45390386 C11.17733185 467.41572522 11.17155427 469.37754657 11.16577667 471.33936793 C11.15423875 475.25714942 11.14270143 479.17493091 11.13116455 483.0927124 C11.1283128 484.06103576 11.12546105 485.02935911 11.12252288 486.0270256 C11.01352187 523.04340447 10.90599442 560.05978765 10.79882812 597.07617188 C10.79612007 598.01148336 10.79341202 598.94679485 10.79062191 599.91044911 C10.5363507 687.74054535 10.28979128 775.57066218 10.05071047 863.40080108 C10.01687671 875.82722054 9.98284767 888.25363945 9.94867145 900.68005798 C9.64899697 1009.64768361 9.36514373 1118.61536899 8.76483287 1553.34640407 C8.75708283 1563.55555934 8.74919828 1573.76471449 8.74119401 1583.97386956 C8.74066802 1584.64486032 8.74014203 1585.31585107 8.73960011 1586.00717488 C8.73747582 1588.71668796 8.73535093 1591.42620104 8.7332253 1594.13571412 C8.68908352 1650.41111249 8.64694354 1706.68651243 8.60717773 1762.96191406 C8.60670126 1763.6359028 8.60622479 1764.30989154 8.60573388 1765.00430418 C8.58269191 1797.61743131 8.5611836 1830.23055897 8.54260254 1862.84368896 C8.54220065 1863.54841147 8.54179876 1864.25313398 8.54138469 1864.97921172 C8.53691483 1872.8192343 8.53246996 1880.65925691 8.52803367 1888.49927951 C8.52743435 1889.55830016 8.52743435 1889.55830016 8.52682292 1890.63871517 C8.52480671 1894.20186836 8.52279219 1897.76502155 8.52078002 1901.32817475 C8.50257842 1933.53132697 8.48297581 1965.73447691 8.4570837 1997.93762398 C8.45654196 1998.6122178 8.45600021 1999.28681162 8.45544205 1999.98184767 C8.44408489 2014.10545006 8.43231289 2028.22905205 8.42000187 2042.35265364 C8.41425802 2048.95029325 8.40859941 2055.54793293 8.40299797 2062.14557266 C8.40134526 2064.09004712 8.40134526 2064.09004712 8.39965917 2066.07380388 C8.3822877 2086.76273539 8.37203936 2107.45166434 8.36474552 2128.1406016 C8.35739453 2148.65426166 8.34306188 2169.16790678 8.32131977 2189.68155675 C8.30868327 2201.81767793 8.30165581 2213.95377268 8.30256996 2226.08990056 C8.30263925 2234.1732339 8.29554678 2242.25654 8.28251991 2250.3398628 C8.27530993 2254.94339991 8.27130025 2259.54687996 8.27604241 2264.1504216 C8.28029047 2268.33049821 8.27542536 2272.51045959 8.26317802 2276.69051951 C8.26038634 2278.19482817 8.26095945 2279.69914767 8.26525675 2281.20345278 C8.27059906 2283.24270592 8.26245483 2285.28198103 8.25365835 2287.32122219 C8.25294621 2288.45077762 8.25223407 2289.58033305 8.25150034 2290.74411743 C7.97120769 2294.37274058 7.05911561 2297.52637007 6 2301 C5.70236731 2304.17496803 5.70236731 2304.17496803 5.73828697 2307.43673611 C5.73082148 2308.69424567 5.72335599 2309.95175523 5.71566427 2311.24737114 C5.71744077 2312.62987507 5.71940162 2314.01237877 5.7215271 2315.3948822 C5.71652126 2316.87348042 5.71064462 2318.35207591 5.70397437 2319.83066756 C5.68819518 2323.88522805 5.68474483 2327.9397192 5.68332577 2331.99430668 C5.67962809 2336.36984101 5.66447076 2340.74533745 5.65071106 2345.12084961 C5.62844598 2352.69891398 5.61342817 2360.27696486 5.60334396 2367.85505486 C5.58875344 2378.81167281 5.56321554 2389.76824378 5.53501268 2400.72483415 C5.48955149 2418.50152087 5.45293389 2436.27821435 5.421875 2454.05493164 C5.39168671 2471.32252185 5.35733514 2488.59009551 5.31738281 2505.85766602 C5.31492126 2506.92218437 5.31245972 2507.98670273 5.30992357 2509.08347922 C5.29754892 2514.42389838 5.2850924 2519.76431734 5.27259517 2525.10473621 C5.16903745 2569.40313439 5.07983086 2613.70155313 5 2658 C3.35 2658 1.7 2658 0 2658 C0 1780.86 0 903.72 0 0 Z " fill="#FFFFFF" transform="translate(0,0)"/>
<path d="M0 0 C1.65 0 3.3 0 5 0 C5.01713183 72.6043848 5.03303235 145.20876985 5.04234314 217.81315613 C5.04255023 219.42386488 5.04255023 219.42386488 5.04276149 221.06711321 C5.04575409 244.40130677 5.04852432 267.73550035 5.05106533 291.06969397 C5.05231271 302.51203882 5.05360926 313.95438367 5.05493164 325.39672852 C5.0550624 326.53540637 5.05519316 327.67408423 5.05532788 328.84726747 C5.05959261 365.78467774 5.06710644 402.72208648 5.07629722 439.65949582 C5.08572133 477.60338496 5.09188347 515.54727324 5.09391499 553.49116353 C5.09420316 558.84500204 5.0945288 564.19884055 5.09487724 569.55267906 C5.09497838 571.13331666 5.09497838 571.13331666 5.09508156 572.74588633 C5.09626532 589.73892537 5.10090888 606.73196181 5.10683203 623.7249998 C5.11270705 640.79029266 5.11497105 657.85558294 5.11350138 674.92087678 C5.11273823 685.07158521 5.11479138 695.22228418 5.12079754 705.37299091 C5.12453127 712.14299653 5.12467512 718.91299592 5.12183181 725.68300197 C5.12031367 729.54726588 5.12042086 733.41151183 5.12488318 737.27577386 C5.12964114 741.42733616 5.1267612 745.57885678 5.12304783 749.73042011 C5.12567484 750.9450503 5.12830186 752.15968048 5.13100848 753.41111764 C5.12876118 754.51012343 5.12651389 755.60912922 5.1241985 756.74143821 C5.12435448 757.69182815 5.12451046 758.6422181 5.12467116 759.62140774 C5 762 5 762 4 765 C2.68 765.33 1.36 765.66 0 766 C0 513.22 0 260.44 0 0 Z " fill="#222259" transform="translate(8,1583)"/>
<path d="M0 0 C0.33 0 0.66 0 1 0 C1.01713183 72.6043848 1.03303235 145.20876985 1.04234314 217.81315613 C1.04255023 219.42386488 1.04255023 219.42386488 1.04276149 221.06711321 C1.04575409 244.40130677 1.04852432 267.73550035 1.05106533 291.06969397 C1.05231271 302.51203882 1.05360926 313.95438367 1.05493164 325.39672852 C1.0550624 326.53540637 1.05519316 327.67408423 1.05532788 328.84726747 C1.05959261 365.78467774 1.06710644 402.72208648 1.07629722 439.65949582 C1.08572133 477.60338496 1.09188347 515.54727324 1.09391499 553.49116353 C1.09420316 558.84500204 1.0945288 564.19884055 1.09487724 569.55267906 C1.09497838 571.13331666 1.09497838 571.13331666 1.09508156 572.74588633 C1.09626532 589.73892537 1.10090888 606.73196181 1.10683203 623.7249998 C1.11270705 640.79029266 1.11497105 657.85558294 1.11350138 674.92087678 C1.11273823 685.07158521 1.11479138 695.22228418 1.12079754 705.37299091 C1.12453127 712.14299653 1.12467512 718.91299592 1.12183181 725.68300197 C1.12031367 729.54726588 1.12042086 733.41151183 1.12488318 737.27577386 C1.12964114 741.42733616 1.1267612 745.57885678 1.12304783 749.73042011 C1.12567484 750.9450503 1.12830186 752.15968048 1.13100848 753.41111764 C1.12876118 754.51012343 1.12651389 755.60912922 1.1241985 756.74143821 C1.12435448 757.69182815 1.12451046 758.6422181 1.12467116 759.62140774 C1 762 1 762 0 765 C-1.32 765.33 -2.64 765.66 -4 766 C-4 758.74 -4 751.48 -4 744 C-3.01 743.67 -2.02 743.34 -1 743 C-0.67 497.81 -0.34 252.62 0 0 Z " fill="#853C42" transform="translate(12,1583)"/>
<path d="M0 0 C2.24159122 0.58879059 2.24159122 0.58879059 4.91796875 -1.6875 C6.23796875 -1.0275 7.55796875 -0.3675 8.91796875 0.3125 C8.91796875 0.9725 8.91796875 1.6325 8.91796875 2.3125 C-3.29203125 2.3125 -15.50203125 2.3125 -28.08203125 2.3125 C-24.11611506 0.3295419 -20.77470485 -0.39697144 -16.45703125 -0.9375 C-15.74716064 -1.02902344 -15.03729004 -1.12054687 -14.3059082 -1.21484375 C-9.22739272 -1.77777744 -4.93154928 -1.49389445 0 0 Z " fill="#D45030" transform="translate(123.08203125,2651.6875)"/>
<path d="M0 0 C0.99 0.33 1.98 0.66 3 1 C3 1.66 3 2.32 3 3 C3.66 3 4.32 3 5 3 C5.33 3.99 5.66 4.98 6 6 C9.00847418 7.22520264 9.00847418 7.22520264 12 8 C12 8.66 12 9.32 12 10 C12.66 10.33 13.32 10.66 14 11 C9.38 11 4.76 11 0 11 C0 7.37 0 3.74 0 0 Z " fill="#C44C34" transform="translate(8,2643)"/>
<path d="M0 0 C0 4.62 0 9.24 0 14 C-0.99 14.33 -1.98 14.66 -3 15 C-4.38226016 12.23547967 -4.09525387 9.9538637 -4.0625 6.875 C-4.05347656 5.77929688 -4.04445313 4.68359375 -4.03515625 3.5546875 C-4.02355469 2.71164063 -4.01195312 1.86859375 -4 1 C-1 0 -1 0 0 0 Z " fill="#873C41" transform="translate(12,2326)"/>
<path d="M0 0 C0.33 0 0.66 0 1 0 C1.02696009 2.7708983 1.04681952 5.5415345 1.0625 8.3125 C1.07087891 9.09818359 1.07925781 9.88386719 1.08789062 10.69335938 C1.09111328 11.45068359 1.09433594 12.20800781 1.09765625 12.98828125 C1.10289307 13.68477783 1.10812988 14.38127441 1.11352539 15.09887695 C1 17 1 17 0 20 C-1.32 20.33 -2.64 20.66 -4 21 C-4 17.7 -4 14.4 -4 11 C-2.68 11.33 -1.36 11.66 0 12 C0 8.04 0 4.08 0 0 Z " fill="#B94936" transform="translate(12,2328)"/>
<path d="M0 0 C0.33 0 0.66 0 1 0 C1.02705729 1.77074917 1.04642195 3.54161711 1.0625 5.3125 C1.07410156 6.29863281 1.08570313 7.28476563 1.09765625 8.30078125 C1 11 1 11 0 14 C-0.66 14 -1.32 14 -2 14 C-2.21192221 8.80790596 -1.5912689 4.873261 0 0 Z " fill="#FF4900" transform="translate(7,2294)"/>
<path d="M0 0 C0.33 0 0.66 0 1 0 C1 2.97 1 5.94 1 9 C0.01 9 -0.98 9 -2 9 C-2.125 5.625 -2.125 5.625 -2 2 C-1.34 1.34 -0.68 0.68 0 0 Z " fill="#5C314B" transform="translate(11,2326)"/>
<path d="M0 0 C0.33 0 0.66 0 1 0 C1 2.97 1 5.94 1 9 C0.01 9.33 -0.98 9.66 -2 10 C-2 7.69 -2 5.38 -2 3 C-1.34 3 -0.68 3 0 3 C0 2.01 0 1.02 0 0 Z " fill="#FF542E" transform="translate(7,2305)"/>
<path d="M0 0 C7.75 0.75 7.75 0.75 10 3 C6.7 3 3.4 3 0 3 C0 2.01 0 1.02 0 0 Z " fill="#A9453A" transform="translate(8,2651)"/>
</svg>
