<svg width="149" height="150" viewBox="0 0 149 150" fill="none" xmlns="http://www.w3.org/2000/svg">
<path d="M68.96 0L73.29 16.36C75.21 23.63 72.41 31.49 66.33 35.91C60.24 40.33 51.91 40.56 45.59 36.49L21.47 20.94C23.91 18.62 26.53 16.43 29.32 14.4C30.93 13.23 32.57 12.14 34.23 11.11L53.81 23.73C54.91 24.44 56.35 24.4 57.41 23.63C58.47 22.86 58.95 21.5 58.62 20.24L53.94 2.54C58.89 1.18 63.92 0.34 68.97 0L68.96 0Z" fill="#17215C"/>
<path d="M59.12 58.08C61.45 65.23 59.09 73.23 53.26 77.99L8.31 114.64C5.61 110.04 3.45 105.26 1.8 100.36L43.66 66.22C44.67 65.4 45.08 64.01 44.67 62.77C44.26 61.51 43.14 60.64 41.82 60.57L0 58.24C1.23 53.12 2.99 48.13 5.26 43.34L42.68 45.43C50.19 45.85 56.79 50.94 59.12 58.09V58.08Z" fill="#17215C"/>
<path d="M95.1 83.51L116.77 139.38C112.45 142.29 107.94 144.7 103.3 146.62L80.95 89C80.47 87.78 79.28 86.96 77.98 86.97C76.67 86.97 75.48 87.79 75.01 89L51.73 149.03C46.9 147.55 42.21 145.59 37.73 143.16L60.86 83.52C63.58 76.51 70.46 71.8 77.98 71.8C85.5 71.8 92.38 76.51 95.1 83.53V83.51Z" fill="#17215C"/>
<path d="M112.29 66.23L147.97 95.33C146.63 100.49 144.75 105.52 142.34 110.32L102.7 77.99C96.87 73.24 94.52 65.24 96.84 58.09C99.16 50.94 105.77 45.85 113.28 45.43L143.24 43.76C145.51 48.59 147.24 53.59 148.43 58.67L114.13 60.59C112.82 60.66 111.68 61.55 111.28 62.79C110.88 64.03 111.28 65.42 112.3 66.25L112.29 66.23Z" fill="#17215C"/>
<path d="M129.83 23.95L110.38 36.48C104.06 40.56 95.72 40.32 89.64 35.9C83.55 31.48 80.76 23.63 82.68 16.35L86.77 0.880005C91.76 1.71 96.67 3.04 101.42 4.85L97.35 20.23C97.01 21.51 97.49 22.84 98.56 23.63C99.61 24.39 101.06 24.43 102.16 23.73L117.89 13.59C122.16 16.57 126.17 20.03 129.83 23.95Z" fill="#17215C"/>
</svg>
