<?xml version="1.0" encoding="UTF-8"?>
<svg id="Layer_2" data-name="Layer 2" xmlns="http://www.w3.org/2000/svg" viewBox="0 0 58.59 58.47">
  <defs>
    <style>
      .cls-1 {
        fill: #f45929;
        stroke-width: 0px;
      }
    </style>
  </defs>
  <g id="Layer_2-2" data-name="Layer 2">
    <g id="Layer_1-2" data-name="Layer 1-2">
      <g>
        <path class="cls-1" d="M27.22,0l1.71,6.42c.76,2.85-.35,5.94-2.75,7.67-2.4,1.73-5.69,1.82-8.19.23l-9.52-6.1c.96-.91,2-1.77,3.1-2.57.64-.46,1.28-.89,1.94-1.29l7.73,4.95c.43.28,1,.26,1.42-.04s.61-.84.48-1.33l-1.85-6.94C23.25.46,25.23.13,27.23,0h0Z"/>
        <path class="cls-1" d="M23.34,22.79c.92,2.81-.01,5.94-2.31,7.81L3.28,44.98c-1.07-1.8-1.92-3.68-2.57-5.6l16.52-13.39c.4-.32.56-.87.4-1.35-.16-.49-.6-.84-1.13-.86l-16.51-.91c.49-2.01,1.18-3.97,2.08-5.85l14.77.82c2.96.16,5.57,2.16,6.49,4.97h0Z"/>
        <path class="cls-1" d="M37.54,32.77l8.55,21.92c-1.71,1.14-3.49,2.09-5.32,2.84l-8.82-22.61c-.19-.48-.66-.8-1.17-.8-.52,0-.99.32-1.17.8l-9.19,23.55c-1.91-.58-3.76-1.35-5.53-2.3l9.13-23.4c1.07-2.75,3.79-4.6,6.76-4.6s5.68,1.85,6.76,4.6h0Z"/>
        <path class="cls-1" d="M44.33,25.99l14.08,11.42c-.53,2.02-1.27,4-2.22,5.88l-15.65-12.68c-2.3-1.86-3.23-5-2.31-7.81s3.53-4.8,6.49-4.97l11.83-.66c.9,1.9,1.58,3.86,2.05,5.85l-13.54.75c-.52.03-.97.38-1.13.86s0,1.03.4,1.36h0Z"/>
        <path class="cls-1" d="M51.25,9.4l-7.68,4.92c-2.49,1.6-5.79,1.51-8.19-.23-2.4-1.73-3.51-4.81-2.75-7.67l1.61-6.07c1.97.33,3.91.85,5.78,1.56l-1.61,6.03c-.13.5.06,1.02.48,1.33.41.3.99.31,1.42.04l6.21-3.98c1.69,1.17,3.27,2.53,4.71,4.06Z"/>
      </g>
    </g>
  </g>
</svg>