<?xml version="1.0" encoding="utf-8"?>
<!-- Generator: Adobe Illustrator 28.1.0, SVG Export Plug-In . SVG Version: 6.00 Build 0)  -->
<svg version="1.1" id="Layer_2_00000018946194985484037630000015653228596641894550_"
	 xmlns="http://www.w3.org/2000/svg" xmlns:xlink="http://www.w3.org/1999/xlink" x="0px" y="0px" viewBox="0 0 609.7 149"
	 style="enable-background:new 0 0 609.7 149;" xml:space="preserve">
<style type="text/css">
	.st0{fill:#F45929;}
</style>
<g id="Layer_1-2">
	<g>
		<g>
			<path class="st0" d="M149.1,3.7h13l-16.1,69.8h-18.1L114.7,3.7H129l8,54.8h0.4l1.3-9.2L149.1,3.7L149.1,3.7z"/>
			<path class="st0" d="M181.3,73.5h-13.8V3.7h13.8V73.5z"/>
			<path class="st0" d="M215.7,56.4c0-13.5-26.4-13.1-26.4-34.7c0-11,6.8-18.7,19.9-18.7c9.4,0,15.3,4,17.9,11.3
				c1.9,5.3,1.6,10.9,1.6,15.2h-13.4v-4.9c0-3.8,0.3-11.8-6.2-11.8c-5.4,0-5.6,5.1-5.6,6.8c0,18.3,26.4,16.8,26.4,35.4
				c0,10.3-8,19.2-21.3,19.2c-10.4-0.1-16.7-4.2-19.2-11.3c-1.9-5.3-1.2-10.9-1.2-15.2h13.4v4.7c0,3.8-0.6,11.8,6.8,11.8
				C214.1,64.2,215.7,59.7,215.7,56.4L215.7,56.4z"/>
			<path class="st0" d="M250.6,73.5h-13.8V3.7h13.8V73.5z"/>
			<path class="st0" d="M261.5,18c2.2-7.4,8.3-15,20.3-15s18.1,7.6,20.3,15c1.9,6.6,2.1,16.2,2.1,20.6s-0.1,14-2.1,20.6
				c-2.2,7.4-8.3,15-20.3,15s-18.1-7.6-20.3-15c-1.9-6.6-2.1-16.2-2.1-20.6S259.6,24.6,261.5,18z M289.3,22c-0.5-4-1.2-9.1-7.4-9.1
				s-7,5.2-7.5,9.1c-0.6,5.9-0.5,10.5-0.5,16.5s-0.1,10.7,0.5,16.5c0.5,4,1.2,9.1,7.4,9.1s7-5.2,7.4-9.1c0.6-5.9,0.5-10.5,0.5-16.5
				S289.9,27.9,289.3,22z"/>
			<path class="st0" d="M353.6,73.5h-14.1l-14.9-45.4h-0.3l0.6,6.2v39.2h-11.6V3.7h15.7l13.2,40.6h0.3l-0.6-6.2V3.7h11.6L353.6,73.5
				L353.6,73.5z"/>
			<path class="st0" d="M363.8,36.7l3.7-33h35.2v9.9h-23.2l-1.3,12.3c2.6-0.9,5.8-1.3,9.2-1.3c15.5,0,17.7,9.4,17.7,26.8
				c0,12.4-2.8,22.8-20.9,22.8c-12.7,0-18.1-5.9-19.7-11.1c-1.2-3.8-1.6-12.4-1.6-13.9h13.9c0,2.6-0.1,4.9,0.3,7.8
				c0.3,3.2,1.1,7.1,6.6,7.1c2.9,0,4.9-1.2,5.8-3.5c1.2-2.8,1.1-7.1,1.1-12.1c0-5.6-0.1-9.3-1.3-11.3c-0.9-1.5-2.9-3-6.5-3
				c-2.1,0-4.2,0.5-7.3,2.4L363.8,36.7L363.8,36.7z"/>
		</g>
		<g>
			<path class="st0" d="M45.8,0l2.9,8.8c1.3,3.9-0.6,8.1-4.6,10.5s-9.6,2.5-13.8,0.3l-16-8.4c1.6-1.2,3.4-2.4,5.2-3.5
				c1.1-0.6,2.1-1.2,3.3-1.8l13,6.8c0.7,0.4,1.7,0.4,2.4-0.1c0.7-0.4,1-1.1,0.8-1.8l-3.2-9.5C39.1,0.6,42.4,0.2,45.8,0L45.8,0z"/>
			<path class="st0" d="M39.3,31.2c1.5,3.9,0,8.2-3.9,10.7L5.5,61.6c-1.8-2.5-3.3-5.1-4.3-7.7L29,35.6c0.7-0.4,0.9-1.2,0.7-1.9
				c-0.3-0.7-1-1.1-1.9-1.2L0,31.3c0.8-2.7,2-5.4,3.5-8l24.8,1.1C33.3,24.7,37.7,27.4,39.3,31.2L39.3,31.2z"/>
			<path class="st0" d="M63.2,44.9l14.4,30c-2.9,1.6-5.8,2.8-9,3.9l-14.9-31c-0.3-0.6-1.1-1.1-2-1.1s-1.7,0.4-2,1.1L34.3,80.1
				c-3.2-0.8-6.3-1.8-9.3-3.2l15.3-32c1.8-3.8,6.4-6.3,11.4-6.3C56.8,38.6,61.4,41.1,63.2,44.9L63.2,44.9z"/>
			<path class="st0" d="M74.6,35.6l23.7,15.6c-0.9,2.8-2.1,5.5-3.7,8.1L68.2,41.9c-3.9-2.6-5.4-6.9-3.9-10.7
				c1.5-3.8,5.9-6.6,10.9-6.8l19.9-0.9c1.5,2.6,2.7,5.3,3.5,8l-22.8,1c-0.9,0.1-1.6,0.5-1.9,1.2C73.7,34.3,73.9,35.1,74.6,35.6
				L74.6,35.6z"/>
			<path class="st0" d="M86.2,12.9l-12.9,6.7c-4.2,2.2-9.8,2-13.8-0.3c-4.1-2.4-5.9-6.6-4.6-10.5l2.7-8.3c3.3,0.4,6.6,1.2,9.8,2.1
				l-2.7,8.3c-0.2,0.7,0.1,1.4,0.8,1.8c0.7,0.4,1.7,0.4,2.4,0.1l10.4-5.4C81.2,8.9,83.8,10.7,86.2,12.9z"/>
		</g>
	</g>
</g>
</svg>
