<?xml version="1.0" encoding="utf-8"?>
<!-- Generator: Adobe Illustrator 28.1.0, SVG Export Plug-In . SVG Version: 6.00 Build 0)  -->
<svg version="1.1" id="Layer_2_00000018946194985484037630000015653228596641894550_"
	 xmlns="http://www.w3.org/2000/svg" xmlns:xlink="http://www.w3.org/1999/xlink" x="0px" y="0px" viewBox="0 0 609.7 149"
	 style="enable-background:new 0 0 609.7 149;" xml:space="preserve">
<style type="text/css">
	.st0{fill:#F45929;}
</style>
<g id="Layer_1-2">
	<g>
		<g>
			<path class="st0" d="M224.4,6.8h19.5l-24.3,129.9h-27.2L172.7,6.8h21.5l12.1,101.9h0.6l2-17.1L224.4,6.8L224.4,6.8z"/>
			<path class="st0" d="M273,136.7h-20.8V6.8H273V136.7z"/>
			<path class="st0" d="M324.7,104.9c0-25.2-39.8-24.3-39.8-64.6c0-20.4,10.3-34.8,30-34.8c14.2,0,23,7.4,27,21
				c2.9,9.9,2.4,20.2,2.4,28.3h-20.2v-9.2c0-7,0.5-21.9-9.4-21.9c-8.1,0-8.5,9.4-8.5,12.7c0,34,39.8,31.3,39.8,65.9
				c0,19.1-12.1,35.7-32,35.7c-15.6-0.2-25.2-7.9-28.9-21c-2.8-9.9-1.8-20.2-1.8-28.3h20.2v8.8c0,7-0.9,21.9,10.3,21.9
				C322.3,119.4,324.7,111.1,324.7,104.9L324.7,104.9z"/>
			<path class="st0" d="M377.3,136.7h-20.8V6.8h20.8V136.7z"/>
			<path class="st0" d="M393.7,33.5c3.3-13.8,12.5-28,30.5-28s27.2,14.2,30.5,28c2.9,12.3,3.1,30.2,3.1,38.3s-0.2,26-3.1,38.3
				c-3.3,13.8-12.5,28-30.5,28s-27.2-14.2-30.5-28c-2.9-12.3-3.1-30.2-3.1-38.3S390.8,45.8,393.7,33.5z M435.5,41
				c-0.7-7.4-1.8-16.9-11.2-16.9S413.8,33.7,413,41c-0.9,10.9-0.7,19.5-0.7,30.7s-0.2,19.9,0.7,30.7c0.7,7.4,1.8,16.9,11.2,16.9
				s10.5-9.6,11.2-16.9c0.9-10.9,0.7-19.5,0.7-30.7S436.4,51.9,435.5,41z"/>
			<path class="st0" d="M532.3,136.7h-21.2l-22.5-84.5h-0.5l0.9,11.6v72.9h-17.5V6.8h23.7l19.9,75.6h0.5l-0.9-11.6v-64h17.5V136.7z"
				/>
			<path class="st0" d="M547.7,68.3l5.5-61.5h53v18.4h-35l-2,22.8c3.9-1.7,8.8-2.4,13.8-2.4c23.4,0,26.7,17.5,26.7,49.9
				c0,23-4.2,42.5-31.5,42.5c-19.1,0-27.2-11-29.6-20.6c-1.8-7-2.4-23-2.4-25.8h21c0,4.8-0.2,9.2,0.4,14.5
				c0.5,5.9,1.7,13.2,9.9,13.2c4.4,0,7.4-2.2,8.8-6.6c1.8-5.3,1.7-13.2,1.7-22.5c0-10.5-0.2-17.3-2-21c-1.3-2.8-4.4-5.5-9.8-5.5
				c-3.1,0-6.3,0.9-11,4.4L547.7,68.3L547.7,68.3z"/>
		</g>
		<g>
			<path class="st0" d="M69,0l4.3,16.4c1.9,7.3-0.9,15.1-7,19.5c-6.1,4.4-14.4,4.7-20.7,0.6L21.5,20.9c2.4-2.3,5.1-4.5,7.9-6.5
				c1.6-1.2,3.2-2.3,4.9-3.3l19.6,12.6c1.1,0.7,2.5,0.7,3.6-0.1s1.5-2.1,1.2-3.4L53.9,2.5C58.9,1.2,63.9,0.3,69,0L69,0z"/>
			<path class="st0" d="M59.1,58.1c2.3,7.2,0,15.2-5.9,19.9L8.3,114.6c-2.7-4.6-4.9-9.4-6.5-14.3l41.9-34.1c1-0.8,1.4-2.2,1-3.5
				c-0.4-1.3-1.5-2.1-2.8-2.2L0,58.2c1.2-5.1,3-10.1,5.3-14.9l37.4,2.1C50.2,45.9,56.8,50.9,59.1,58.1L59.1,58.1z"/>
			<path class="st0" d="M95.1,83.5l21.7,55.9c-4.3,2.9-8.8,5.3-13.5,7.2L80.9,89c-0.5-1.2-1.7-2-3-2c-1.3,0-2.5,0.8-3,2l-23.3,60
				c-4.8-1.5-9.5-3.4-14-5.9l23.1-59.6c2.7-7,9.6-11.7,17.1-11.7C85.5,71.8,92.4,76.5,95.1,83.5L95.1,83.5z"/>
			<path class="st0" d="M112.3,66.2L148,95.3c-1.3,5.2-3.2,10.2-5.6,15L102.7,78c-5.8-4.8-8.2-12.8-5.9-19.9s8.9-12.2,16.4-12.7
				l30-1.7c2.3,4.8,4,9.8,5.2,14.9l-34.3,1.9c-1.3,0.1-2.4,1-2.8,2.2S111.3,65.4,112.3,66.2L112.3,66.2z"/>
			<path class="st0" d="M129.8,24l-19.4,12.5c-6.3,4.1-14.7,3.8-20.7-0.6c-6.1-4.4-8.9-12.3-7-19.5l4.1-15.5c5,0.8,9.9,2.2,14.7,4
				l-4.1,15.4c-0.3,1.3,0.1,2.6,1.2,3.4c1.1,0.8,2.5,0.8,3.6,0.1l15.7-10.1C122.2,16.6,126.2,20,129.8,24z"/>
		</g>
	</g>
</g>
</svg>
