<?xml version="1.0" encoding="UTF-8"?>
<svg id="Layer_2" data-name="Layer 2" xmlns="http://www.w3.org/2000/svg" viewBox="0 0 221.08 220.02">
  <defs>
    <style>
      .cls-1 {
        fill: #f45929;
        stroke-width: 0px;
      }
    </style>
  </defs>
  <g id="Layer_2-2" data-name="Layer 2">
    <g id="Layer_1-2" data-name="Layer 1-2">
      <g>
        <path class="cls-1" d="M102.71,0l6.45,24.15c2.86,10.73-1.31,22.34-10.37,28.86-9.07,6.53-21.48,6.86-30.89.86L31.98,30.91c3.63-3.43,7.54-6.66,11.69-9.66,2.4-1.73,4.84-3.34,7.31-4.86l29.16,18.63c1.64,1.05,3.78.99,5.36-.15s2.29-3.14,1.8-5l-6.97-26.13C87.71,1.74,95.21.5,102.73,0h-.01Z"/>
        <path class="cls-1" d="M88.06,85.74c3.47,10.56-.04,22.37-8.73,29.39L12.38,169.24c-4.02-6.79-7.24-13.85-9.7-21.08l62.35-50.4c1.5-1.21,2.12-3.26,1.5-5.09-.61-1.86-2.28-3.14-4.24-3.25L0,85.98c1.83-7.56,4.45-14.93,7.83-22l55.74,3.09c11.19.62,21.02,8.13,24.49,18.69h0Z"/>
        <path class="cls-1" d="M141.65,123.29l32.28,82.48c-6.43,4.3-13.15,7.85-20.06,10.69l-33.29-85.07c-.71-1.8-2.49-3.01-4.42-3-1.95,0-3.72,1.21-4.42,3l-34.67,88.62c-7.19-2.18-14.18-5.08-20.85-8.67l34.45-88.05c4.05-10.35,14.3-17.3,25.5-17.3s21.45,6.95,25.5,17.32v-.03Z"/>
        <path class="cls-1" d="M167.25,97.78l53.14,42.96c-2,7.62-4.8,15.04-8.39,22.13l-59.04-47.73c-8.68-7.01-12.18-18.82-8.73-29.38s13.3-18.07,24.49-18.69l44.62-2.47c3.38,7.13,5.96,14.51,7.73,22.01l-51.09,2.83c-1.95.1-3.65,1.42-4.24,3.25s0,3.88,1.52,5.11v-.03Z"/>
        <path class="cls-1" d="M193.38,35.36l-28.97,18.5c-9.41,6.02-21.84,5.67-30.89-.86-9.07-6.53-13.23-18.11-10.37-28.86l6.09-22.84c7.43,1.23,14.75,3.19,21.82,5.86l-6.06,22.71c-.51,1.89.21,3.85,1.8,5.02,1.56,1.12,3.72,1.18,5.36.15l23.43-14.97c6.36,4.4,12.33,9.51,17.78,15.29Z"/>
      </g>
    </g>
  </g>
</svg>