<?xml version="1.0" encoding="UTF-8"?>
<svg id="Layer_2" data-name="Layer 2" xmlns="http://www.w3.org/2000/svg" viewBox="0 0 609.73 149.02">
  <defs>
    <style>
      .cls-1 {
        fill: #e1eaf9;
      }

      .cls-1, .cls-2 {
        stroke-width: 0px;
      }

      .cls-2 {
        fill: #f45929;
      }
    </style>
  </defs>
  <g id="Layer_1-2" data-name="Layer 1">
    <g>
      <g>
        <path class="cls-1" d="m224.44,6.81h19.5l-24.29,129.91h-27.23L172.73,6.81h21.53l12.14,101.94h.55l2.02-17.11,15.46-84.83Z"/>
        <path class="cls-1" d="m273.01,136.72h-20.79V6.81h20.79v129.91Z"/>
        <path class="cls-1" d="m324.71,104.89c0-25.21-39.75-24.29-39.75-64.59,0-20.42,10.3-34.78,29.99-34.78,14.17,0,23,7.36,27.05,20.98,2.94,9.94,2.39,20.24,2.39,28.34h-20.24v-9.2c0-6.99.55-21.9-9.38-21.9-8.1,0-8.46,9.38-8.46,12.7,0,34.04,39.75,31.28,39.75,65.87,0,19.14-12.14,35.7-32.02,35.7-15.64-.18-25.21-7.91-28.89-20.98-2.76-9.94-1.84-20.24-1.84-28.34h20.24v8.83c0,6.99-.92,21.9,10.3,21.9,8.46,0,10.86-8.28,10.86-14.54Z"/>
        <path class="cls-1" d="m377.34,136.72h-20.79V6.81h20.79v129.91Z"/>
        <path class="cls-1" d="m393.71,33.49c3.31-13.8,12.51-27.97,30.54-27.97s27.23,14.17,30.54,27.97c2.94,12.33,3.13,30.18,3.13,38.27s-.18,25.95-3.13,38.27c-3.31,13.8-12.51,27.97-30.54,27.97s-27.23-14.17-30.54-27.97c-2.94-12.33-3.13-30.18-3.13-38.27s.18-25.94,3.13-38.27Zm41.77,7.54c-.74-7.36-1.84-16.93-11.22-16.93s-10.49,9.57-11.22,16.93c-.92,10.86-.74,19.5-.74,30.73s-.18,19.87.74,30.73c.74,7.36,1.84,16.93,11.22,16.93s10.49-9.57,11.22-16.93c.92-10.86.74-19.5.74-30.73s.18-19.87-.74-30.73Z"/>
        <path class="cls-1" d="m532.27,136.72h-21.16l-22.45-84.46h-.55l.92,11.59v72.87h-17.48V6.81h23.74l19.87,75.63h.55l-.92-11.59V6.81h17.48v129.91Z"/>
        <path class="cls-1" d="m547.72,68.27l5.52-61.46h52.99v18.4h-34.96l-2.02,22.82c3.86-1.66,8.83-2.39,13.8-2.39,23.37,0,26.68,17.48,26.68,49.87,0,23-4.23,42.5-31.46,42.5-19.14,0-27.23-11.04-29.62-20.61-1.84-6.99-2.39-23-2.39-25.76h20.98c0,4.78-.18,9.2.37,14.54.55,5.89,1.66,13.25,9.94,13.25,4.42,0,7.36-2.21,8.83-6.62,1.84-5.34,1.66-13.25,1.66-22.45,0-10.49-.18-17.3-2.02-20.98-1.29-2.76-4.42-5.52-9.75-5.52-3.13,0-6.26.92-11.04,4.42h-17.48Z"/>
      </g>
      <g>
        <path class="cls-2" d="m68.96,0l4.33,16.36c1.92,7.27-.88,15.13-6.96,19.55-6.09,4.42-14.42,4.65-20.74.58l-24.12-15.55c2.44-2.32,5.06-4.51,7.85-6.54,1.61-1.17,3.25-2.26,4.91-3.29l19.58,12.62c1.1.71,2.54.67,3.6-.1s1.54-2.13,1.21-3.39l-4.68-17.7c4.95-1.36,9.98-2.2,15.03-2.54Z"/>
        <path class="cls-2" d="m59.12,58.08c2.33,7.15-.03,15.15-5.86,19.91L8.31,114.64c-2.7-4.6-4.86-9.38-6.51-14.28l41.86-34.14c1.01-.82,1.42-2.21,1.01-3.45-.41-1.26-1.53-2.13-2.85-2.2L0,58.24c1.23-5.12,2.99-10.11,5.26-14.9l37.42,2.09c7.51.42,14.11,5.51,16.44,12.66Z"/>
        <path class="cls-2" d="m95.1,83.51l21.67,55.87c-4.32,2.91-8.83,5.32-13.47,7.24l-22.35-57.62c-.48-1.22-1.67-2.04-2.97-2.03-1.31,0-2.5.82-2.97,2.03l-23.28,60.03c-4.83-1.48-9.52-3.44-14-5.87l23.13-59.64c2.72-7.01,9.6-11.72,17.12-11.72,7.52,0,14.4,4.71,17.12,11.73Z"/>
        <path class="cls-2" d="m112.29,66.23l35.68,29.1c-1.34,5.16-3.22,10.19-5.63,14.99l-39.64-32.33c-5.83-4.75-8.18-12.75-5.86-19.9,2.32-7.15,8.93-12.24,16.44-12.66l29.96-1.67c2.27,4.83,4,9.83,5.19,14.91l-34.3,1.92c-1.31.07-2.45.96-2.85,2.2-.4,1.24,0,2.63,1.02,3.46Z"/>
        <path class="cls-2" d="m129.83,23.95l-19.45,12.53c-6.32,4.08-14.66,3.84-20.74-.58-6.09-4.42-8.88-12.27-6.96-19.55l4.09-15.47c4.99.83,9.9,2.16,14.65,3.97l-4.07,15.38c-.34,1.28.14,2.61,1.21,3.4,1.05.76,2.5.8,3.6.1l15.73-10.14c4.27,2.98,8.28,6.44,11.94,10.36Z"/>
      </g>
    </g>
  </g>
</svg>